<svg width="384" height="240" viewBox="0 0 384 240" fill="none" xmlns="http://www.w3.org/2000/svg">
<rect width="384" height="240" fill="url(#paint0_linear_663_1063)"/>
<circle cx="192" cy="95.5" r="42" fill="#198C8C"/>
<path d="M172 83C172 80.2656 174.188 78 177 78H207C209.734 78 212 80.2656 212 83V108C212 110.812 209.734 113 207 113H177C174.188 113 172 110.812 172 108V83ZM177 85.5C177 86.9062 178.094 88 179.5 88C180.828 88 182 86.9062 182 85.5C182 84.1719 180.828 83 179.5 83C178.094 83 177 84.1719 177 85.5ZM207 85.5C207 84.4844 206.141 83.625 205.125 83.625H186.375C185.281 83.625 184.5 84.4844 184.5 85.5C184.5 86.5938 185.281 87.375 186.375 87.375H205.125C206.141 87.375 207 86.5938 207 85.5Z" fill="white"/>
<path d="M112.207 167.844C112.128 167.099 111.793 166.52 111.202 166.105C110.616 165.69 109.855 165.483 108.918 165.483C108.259 165.483 107.693 165.582 107.222 165.781C106.75 165.98 106.389 166.25 106.139 166.591C105.889 166.932 105.761 167.321 105.756 167.759C105.756 168.122 105.838 168.437 106.003 168.705C106.173 168.972 106.403 169.199 106.693 169.386C106.983 169.568 107.304 169.722 107.656 169.847C108.009 169.972 108.364 170.077 108.722 170.162L110.358 170.571C111.017 170.724 111.651 170.932 112.259 171.193C112.872 171.455 113.42 171.784 113.903 172.182C114.392 172.58 114.778 173.06 115.062 173.622C115.347 174.185 115.489 174.844 115.489 175.599C115.489 176.622 115.227 177.523 114.705 178.301C114.182 179.074 113.426 179.679 112.438 180.116C111.455 180.548 110.264 180.764 108.866 180.764C107.509 180.764 106.33 180.554 105.33 180.134C104.335 179.713 103.557 179.099 102.994 178.293C102.438 177.486 102.136 176.503 102.091 175.344H105.202C105.247 175.952 105.435 176.457 105.764 176.861C106.094 177.264 106.523 177.565 107.051 177.764C107.585 177.963 108.182 178.062 108.841 178.062C109.528 178.062 110.131 177.96 110.648 177.756C111.17 177.545 111.58 177.256 111.875 176.886C112.17 176.511 112.321 176.074 112.327 175.574C112.321 175.119 112.188 174.744 111.926 174.449C111.665 174.148 111.298 173.898 110.827 173.699C110.361 173.494 109.815 173.312 109.19 173.153L107.205 172.642C105.767 172.273 104.631 171.713 103.795 170.963C102.966 170.207 102.551 169.205 102.551 167.955C102.551 166.926 102.83 166.026 103.386 165.253C103.949 164.48 104.713 163.881 105.679 163.455C106.645 163.023 107.739 162.807 108.96 162.807C110.199 162.807 111.284 163.023 112.216 163.455C113.153 163.881 113.889 164.474 114.423 165.236C114.957 165.991 115.233 166.861 115.25 167.844H112.207ZM124.708 167.409V169.795H117.183V167.409H124.708ZM119.04 164.273H122.126V176.562C122.126 176.977 122.188 177.295 122.313 177.517C122.444 177.733 122.614 177.881 122.825 177.96C123.035 178.04 123.268 178.08 123.523 178.08C123.717 178.08 123.893 178.065 124.052 178.037C124.217 178.009 124.342 177.983 124.427 177.96L124.947 180.372C124.782 180.429 124.546 180.491 124.239 180.56C123.938 180.628 123.569 180.668 123.131 180.679C122.359 180.702 121.663 180.585 121.043 180.33C120.424 180.068 119.933 179.665 119.569 179.119C119.211 178.574 119.035 177.892 119.04 177.074V164.273ZM131.055 180.764C130.226 180.764 129.479 180.616 128.814 180.321C128.155 180.02 127.632 179.577 127.246 178.991C126.865 178.406 126.675 177.685 126.675 176.827C126.675 176.088 126.811 175.477 127.084 174.994C127.357 174.511 127.729 174.125 128.2 173.835C128.672 173.545 129.203 173.327 129.794 173.179C130.391 173.026 131.007 172.915 131.643 172.847C132.411 172.767 133.033 172.696 133.51 172.634C133.987 172.565 134.334 172.463 134.55 172.327C134.771 172.185 134.882 171.966 134.882 171.67V171.619C134.882 170.977 134.692 170.48 134.311 170.128C133.93 169.776 133.382 169.599 132.666 169.599C131.911 169.599 131.311 169.764 130.868 170.094C130.43 170.423 130.135 170.812 129.982 171.261L127.101 170.852C127.328 170.057 127.703 169.392 128.226 168.858C128.749 168.318 129.388 167.915 130.143 167.648C130.899 167.375 131.734 167.239 132.649 167.239C133.28 167.239 133.908 167.312 134.533 167.46C135.158 167.608 135.729 167.852 136.246 168.193C136.763 168.528 137.178 168.986 137.49 169.565C137.808 170.145 137.967 170.869 137.967 171.739V180.5H135.001V178.702H134.899C134.712 179.065 134.447 179.406 134.107 179.724C133.771 180.037 133.348 180.29 132.837 180.483C132.331 180.67 131.737 180.764 131.055 180.764ZM131.857 178.497C132.476 178.497 133.013 178.375 133.467 178.131C133.922 177.881 134.271 177.551 134.516 177.142C134.766 176.733 134.891 176.287 134.891 175.804V174.261C134.794 174.341 134.629 174.415 134.396 174.483C134.169 174.551 133.913 174.611 133.629 174.662C133.345 174.713 133.064 174.759 132.786 174.798C132.507 174.838 132.266 174.872 132.061 174.901C131.601 174.963 131.189 175.065 130.825 175.207C130.462 175.349 130.175 175.548 129.964 175.804C129.754 176.054 129.649 176.378 129.649 176.776C129.649 177.344 129.857 177.773 130.271 178.062C130.686 178.352 131.214 178.497 131.857 178.497ZM147.607 167.409V169.795H140.081V167.409H147.607ZM141.939 164.273H145.024V176.562C145.024 176.977 145.087 177.295 145.212 177.517C145.342 177.733 145.513 177.881 145.723 177.96C145.933 178.04 146.166 178.08 146.422 178.08C146.615 178.08 146.791 178.065 146.95 178.037C147.115 178.009 147.24 177.983 147.325 177.96L147.845 180.372C147.68 180.429 147.445 180.491 147.138 180.56C146.837 180.628 146.467 180.668 146.03 180.679C145.257 180.702 144.561 180.585 143.942 180.33C143.322 180.068 142.831 179.665 142.467 179.119C142.109 178.574 141.933 177.892 141.939 177.074V164.273ZM150.187 180.5V167.409H153.272V180.5H150.187ZM151.738 165.551C151.249 165.551 150.829 165.389 150.477 165.065C150.124 164.736 149.948 164.341 149.948 163.881C149.948 163.415 150.124 163.02 150.477 162.696C150.829 162.366 151.249 162.202 151.738 162.202C152.232 162.202 152.653 162.366 152.999 162.696C153.352 163.02 153.528 163.415 153.528 163.881C153.528 164.341 153.352 164.736 152.999 165.065C152.653 165.389 152.232 165.551 151.738 165.551ZM162.155 180.756C160.848 180.756 159.726 180.469 158.788 179.895C157.857 179.321 157.138 178.528 156.632 177.517C156.132 176.5 155.882 175.33 155.882 174.006C155.882 172.676 156.138 171.503 156.649 170.486C157.161 169.463 157.882 168.668 158.814 168.099C159.751 167.526 160.859 167.239 162.138 167.239C163.2 167.239 164.141 167.435 164.959 167.827C165.783 168.213 166.439 168.761 166.928 169.472C167.416 170.176 167.695 171 167.763 171.943H164.814C164.695 171.312 164.411 170.787 163.962 170.366C163.518 169.94 162.925 169.727 162.18 169.727C161.55 169.727 160.996 169.898 160.518 170.239C160.041 170.574 159.669 171.057 159.402 171.688C159.141 172.318 159.01 173.074 159.01 173.955C159.01 174.847 159.141 175.614 159.402 176.256C159.663 176.892 160.03 177.384 160.501 177.73C160.979 178.071 161.538 178.241 162.18 178.241C162.635 178.241 163.041 178.156 163.399 177.986C163.763 177.81 164.067 177.557 164.311 177.227C164.555 176.898 164.723 176.497 164.814 176.026H167.763C167.689 176.952 167.416 177.773 166.945 178.489C166.473 179.199 165.831 179.756 165.018 180.159C164.206 180.557 163.251 180.756 162.155 180.756ZM180.059 180.5L175.133 163.045H178.533L181.678 175.872H181.84L185.198 163.045H188.292L191.658 175.881H191.812L194.957 163.045H198.357L193.431 180.5H190.312L186.817 168.253H186.681L183.178 180.5H180.059ZM204.873 180.756C203.56 180.756 202.427 180.483 201.472 179.938C200.523 179.386 199.793 178.608 199.282 177.602C198.771 176.591 198.515 175.401 198.515 174.031C198.515 172.685 198.771 171.503 199.282 170.486C199.799 169.463 200.521 168.668 201.447 168.099C202.373 167.526 203.461 167.239 204.711 167.239C205.518 167.239 206.279 167.369 206.995 167.631C207.717 167.886 208.353 168.284 208.904 168.824C209.461 169.364 209.898 170.051 210.217 170.886C210.535 171.716 210.694 172.705 210.694 173.852V174.798H199.964V172.719H207.737C207.731 172.128 207.603 171.602 207.353 171.142C207.103 170.676 206.754 170.31 206.305 170.043C205.862 169.776 205.344 169.642 204.754 169.642C204.123 169.642 203.569 169.795 203.092 170.102C202.614 170.403 202.242 170.801 201.975 171.295C201.714 171.784 201.58 172.321 201.575 172.906V174.722C201.575 175.483 201.714 176.136 201.992 176.682C202.271 177.222 202.66 177.636 203.16 177.926C203.66 178.21 204.245 178.352 204.915 178.352C205.364 178.352 205.771 178.29 206.134 178.165C206.498 178.034 206.813 177.844 207.08 177.594C207.347 177.344 207.549 177.034 207.685 176.665L210.566 176.989C210.384 177.75 210.038 178.415 209.526 178.983C209.021 179.545 208.373 179.983 207.583 180.295C206.793 180.602 205.89 180.756 204.873 180.756ZM213.44 180.5V163.045H216.526V169.574H216.653C216.813 169.256 217.037 168.918 217.327 168.56C217.616 168.196 218.009 167.886 218.503 167.631C218.997 167.369 219.628 167.239 220.395 167.239C221.406 167.239 222.318 167.497 223.131 168.014C223.949 168.526 224.597 169.284 225.074 170.29C225.557 171.29 225.798 172.517 225.798 173.972C225.798 175.409 225.563 176.631 225.091 177.636C224.619 178.642 223.977 179.409 223.165 179.938C222.352 180.466 221.432 180.73 220.403 180.73C219.653 180.73 219.031 180.605 218.537 180.355C218.043 180.105 217.645 179.804 217.344 179.452C217.048 179.094 216.818 178.756 216.653 178.438H216.474V180.5H213.44ZM216.466 173.955C216.466 174.801 216.585 175.543 216.824 176.179C217.068 176.815 217.418 177.312 217.872 177.67C218.332 178.023 218.889 178.199 219.543 178.199C220.224 178.199 220.795 178.017 221.256 177.653C221.716 177.284 222.063 176.781 222.295 176.145C222.534 175.503 222.653 174.773 222.653 173.955C222.653 173.142 222.537 172.42 222.304 171.79C222.071 171.159 221.724 170.665 221.264 170.307C220.804 169.949 220.23 169.77 219.543 169.77C218.884 169.77 218.324 169.943 217.864 170.29C217.403 170.636 217.054 171.122 216.815 171.747C216.582 172.372 216.466 173.108 216.466 173.955ZM238.768 170.869L235.955 171.176C235.876 170.892 235.737 170.625 235.538 170.375C235.344 170.125 235.083 169.923 234.754 169.77C234.424 169.616 234.021 169.54 233.543 169.54C232.901 169.54 232.362 169.679 231.924 169.957C231.492 170.236 231.279 170.597 231.285 171.04C231.279 171.42 231.418 171.73 231.702 171.969C231.992 172.207 232.469 172.403 233.134 172.557L235.367 173.034C236.606 173.301 237.526 173.724 238.129 174.304C238.737 174.884 239.043 175.642 239.049 176.58C239.043 177.403 238.802 178.131 238.325 178.761C237.853 179.386 237.197 179.875 236.356 180.227C235.515 180.58 234.549 180.756 233.458 180.756C231.856 180.756 230.566 180.42 229.589 179.75C228.612 179.074 228.029 178.134 227.842 176.929L230.85 176.639C230.987 177.23 231.276 177.676 231.719 177.977C232.163 178.278 232.739 178.429 233.45 178.429C234.183 178.429 234.771 178.278 235.214 177.977C235.663 177.676 235.887 177.304 235.887 176.861C235.887 176.486 235.742 176.176 235.452 175.932C235.168 175.687 234.725 175.5 234.123 175.369L231.89 174.901C230.634 174.639 229.705 174.199 229.103 173.58C228.501 172.955 228.202 172.165 228.208 171.21C228.202 170.403 228.421 169.705 228.864 169.114C229.313 168.517 229.935 168.057 230.731 167.733C231.532 167.403 232.455 167.239 233.501 167.239C235.035 167.239 236.242 167.565 237.123 168.219C238.009 168.872 238.558 169.756 238.768 170.869ZM241.593 180.5V167.409H244.678V180.5H241.593ZM243.144 165.551C242.656 165.551 242.235 165.389 241.883 165.065C241.531 164.736 241.354 164.341 241.354 163.881C241.354 163.415 241.531 163.02 241.883 162.696C242.235 162.366 242.656 162.202 243.144 162.202C243.638 162.202 244.059 162.366 244.406 162.696C244.758 163.02 244.934 163.415 244.934 163.881C244.934 164.341 244.758 164.736 244.406 165.065C244.059 165.389 243.638 165.551 243.144 165.551ZM254.388 167.409V169.795H246.862V167.409H254.388ZM248.72 164.273H251.805V176.562C251.805 176.977 251.868 177.295 251.993 177.517C252.124 177.733 252.294 177.881 252.504 177.96C252.714 178.04 252.947 178.08 253.203 178.08C253.396 178.08 253.572 178.065 253.732 178.037C253.896 178.009 254.021 177.983 254.107 177.96L254.626 180.372C254.462 180.429 254.226 180.491 253.919 180.56C253.618 180.628 253.249 180.668 252.811 180.679C252.038 180.702 251.342 180.585 250.723 180.33C250.104 180.068 249.612 179.665 249.249 179.119C248.891 178.574 248.714 177.892 248.72 177.074V164.273ZM262.623 180.756C261.31 180.756 260.177 180.483 259.222 179.938C258.273 179.386 257.543 178.608 257.032 177.602C256.521 176.591 256.265 175.401 256.265 174.031C256.265 172.685 256.521 171.503 257.032 170.486C257.549 169.463 258.271 168.668 259.197 168.099C260.123 167.526 261.211 167.239 262.461 167.239C263.268 167.239 264.029 167.369 264.745 167.631C265.467 167.886 266.103 168.284 266.654 168.824C267.211 169.364 267.648 170.051 267.967 170.886C268.285 171.716 268.444 172.705 268.444 173.852V174.798H257.714V172.719H265.487C265.481 172.128 265.353 171.602 265.103 171.142C264.853 170.676 264.504 170.31 264.055 170.043C263.612 169.776 263.094 169.642 262.504 169.642C261.873 169.642 261.319 169.795 260.842 170.102C260.364 170.403 259.992 170.801 259.725 171.295C259.464 171.784 259.33 172.321 259.325 172.906V174.722C259.325 175.483 259.464 176.136 259.742 176.682C260.021 177.222 260.41 177.636 260.91 177.926C261.41 178.21 261.995 178.352 262.665 178.352C263.114 178.352 263.521 178.29 263.884 178.165C264.248 178.034 264.563 177.844 264.83 177.594C265.097 177.344 265.299 177.034 265.435 176.665L268.316 176.989C268.134 177.75 267.788 178.415 267.276 178.983C266.771 179.545 266.123 179.983 265.333 180.295C264.543 180.602 263.64 180.756 262.623 180.756ZM281.401 170.869L278.588 171.176C278.509 170.892 278.369 170.625 278.17 170.375C277.977 170.125 277.716 169.923 277.386 169.77C277.057 169.616 276.653 169.54 276.176 169.54C275.534 169.54 274.994 169.679 274.557 169.957C274.125 170.236 273.912 170.597 273.918 171.04C273.912 171.42 274.051 171.73 274.335 171.969C274.625 172.207 275.102 172.403 275.767 172.557L278 173.034C279.239 173.301 280.159 173.724 280.761 174.304C281.369 174.884 281.676 175.642 281.682 176.58C281.676 177.403 281.435 178.131 280.957 178.761C280.486 179.386 279.83 179.875 278.989 180.227C278.148 180.58 277.182 180.756 276.091 180.756C274.489 180.756 273.199 180.42 272.222 179.75C271.244 179.074 270.662 178.134 270.474 176.929L273.483 176.639C273.619 177.23 273.909 177.676 274.352 177.977C274.795 178.278 275.372 178.429 276.082 178.429C276.815 178.429 277.403 178.278 277.847 177.977C278.295 177.676 278.52 177.304 278.52 176.861C278.52 176.486 278.375 176.176 278.085 175.932C277.801 175.687 277.358 175.5 276.756 175.369L274.523 174.901C273.267 174.639 272.338 174.199 271.736 173.58C271.134 172.955 270.835 172.165 270.841 171.21C270.835 170.403 271.054 169.705 271.497 169.114C271.946 168.517 272.568 168.057 273.364 167.733C274.165 167.403 275.088 167.239 276.134 167.239C277.668 167.239 278.875 167.565 279.756 168.219C280.642 168.872 281.19 169.756 281.401 170.869Z" fill="#198C8C"/>
<defs>
<linearGradient id="paint0_linear_663_1063" x1="328" y1="-2.40008e-06" x2="192" y2="240" gradientUnits="userSpaceOnUse">
<stop stop-color="#E8F4F4"/>
<stop offset="1" stop-color="#F5EEFC"/>
</linearGradient>
</defs>
</svg>
